# Blender v2.76 (sub 0) OBJ File: ''
# www.blender.org
o eye
v 0.652994 1.553015 -1.439884
v 0.000000 1.553015 -1.559667
v 0.461735 2.014751 -1.439884
v 1.206574 1.553015 -1.098773
v 0.853176 2.406191 -1.098773
v 1.576465 1.553015 -0.588263
v 1.114729 2.667744 -0.588263
v 1.706353 1.553015 0.013925
v 1.206574 2.759590 0.013925
v 1.576465 1.553015 0.616111
v 1.114729 2.667745 0.616111
v 1.206574 1.553015 1.126621
v 0.853176 2.406191 1.126621
v 0.000000 1.553016 1.782952
v 0.652994 1.553016 1.530212
v 0.461735 2.014751 1.530212
v 0.000000 2.206009 1.530212
v 0.000000 3.129480 0.616112
v 0.000000 2.759590 1.126621
v 0.000000 3.259368 0.013926
v 0.000000 3.129480 -0.588262
v 0.000000 2.759588 -1.098773
v 0.000000 2.206007 -1.439884
v -0.461735 2.014751 -1.439884
v -0.853177 2.406191 -1.098773
v -1.114729 2.667744 -0.588263
v -1.206574 2.759588 0.013925
v -1.114729 2.667745 0.616111
v -0.853177 2.406191 1.126621
v -0.461735 2.014751 1.530212
v -0.652994 1.553016 1.530212
v -1.576465 1.553015 0.616111
v -1.206574 1.553015 1.126621
v -1.706353 1.553015 0.013925
v -1.576465 1.553015 -0.588263
v -1.206574 1.553015 -1.098773
v -0.652994 1.553015 -1.439884
v -0.461735 1.091280 -1.439884
v -0.853176 0.699838 -1.098773
v -1.114729 0.438286 -0.588263
v -1.206573 0.346441 0.013925
v -1.114729 0.438286 0.616111
v -0.853176 0.699838 1.126621
v -0.461735 1.091280 1.530212
v 0.000000 0.900023 1.530212
v 0.000000 -0.023449 0.616111
v 0.000000 0.346441 1.126621
v 0.000000 -0.153337 0.013925
v 0.000000 -0.023449 -0.588263
v 0.000000 0.346441 -1.098773
v 0.000000 0.900022 -1.439884
v 0.461735 1.091280 -1.439884
v 0.853177 0.699840 -1.098773
v 1.114729 0.438286 -0.588263
v 1.206574 0.346443 0.013925
v 1.114729 0.438286 0.616111
v 0.853177 0.699840 1.126621
v 0.461735 1.091280 1.530212
v 0.952113 1.553015 1.323438
v 0.673246 2.226262 1.323438
v 0.000000 2.505129 1.323438
v -0.673246 2.226262 1.323438
v -0.952113 1.553015 1.323438
v -0.673246 0.879769 1.323438
v 0.000000 0.600902 1.323438
v 0.673246 0.879769 1.323438
v 0.808179 1.553016 1.405045
v 0.571469 2.124485 1.405045
v 0.000000 2.361194 1.405045
v -0.571469 2.124485 1.405045
v -0.808179 1.553016 1.405045
v -0.571469 0.981546 1.405045
v 0.000000 0.744837 1.405045
v 0.571469 0.981546 1.405045
v 0.000000 1.553015 0.769415
v 0.000000 2.707139 0.769415
v 0.816088 2.369104 0.769415
v 1.154123 1.553015 0.769415
v 0.816088 0.736927 0.769415
v 0.000000 0.398892 0.769415
v -0.816088 0.736927 0.769415
v -1.154123 1.553015 0.769415
v -0.816088 2.369104 0.769415
v 0.790779 1.553015 1.333897
v 0.559165 2.112180 1.333897
v 0.523569 2.076584 1.375270
v 0.740438 1.553016 1.375270
v 0.430374 1.983390 1.353694
v 0.608641 1.553015 1.353694
v 0.356632 1.909649 1.315036
v 0.504355 1.553015 1.315036
v 0.252658 1.805673 1.350978
v 0.357310 1.553015 1.350978
v 0.186388 1.739405 1.286750
v 0.263593 1.553015 1.286750
v 0.221986 1.775001 1.266555
v 0.313935 1.553015 1.266555
v 0.315180 1.868196 1.219807
v 0.445732 1.553015 1.219807
v 0.430374 1.983390 1.219807
v 0.608641 1.553015 1.219807
v 0.523569 2.076584 1.292524
v 0.740438 1.553015 1.292524
v 0.000000 2.343795 1.333897
v 0.000000 2.293453 1.375270
v 0.000000 2.161657 1.353694
v 0.000000 2.057370 1.315036
v 0.000000 1.910326 1.350978
v 0.000000 1.816608 1.286750
v 0.000000 1.866951 1.266555
v 0.000000 1.998747 1.219807
v 0.000000 2.161657 1.219807
v 0.000000 2.293453 1.292524
v -0.559165 2.112180 1.333897
v -0.523569 2.076584 1.375270
v -0.430374 1.983390 1.353694
v -0.356632 1.909647 1.315036
v -0.252658 1.805673 1.350978
v -0.186388 1.739403 1.286750
v -0.221986 1.775001 1.266555
v -0.315180 1.868196 1.219807
v -0.430374 1.983390 1.219807
v -0.523569 2.076584 1.292524
v -0.790779 1.553015 1.333897
v -0.740438 1.553016 1.375270
v -0.608641 1.553015 1.353694
v -0.504355 1.553015 1.315036
v -0.357310 1.553015 1.350978
v -0.263593 1.553015 1.286750
v -0.313935 1.553015 1.266555
v -0.445732 1.553015 1.219807
v -0.608641 1.553015 1.219807
v -0.740438 1.553015 1.292524
v -0.559165 0.993851 1.333897
v -0.523569 1.029447 1.375270
v -0.430374 1.122641 1.353694
v -0.356632 1.196384 1.315036
v -0.252658 1.300359 1.350978
v -0.186388 1.366628 1.286750
v -0.221986 1.331030 1.266555
v -0.315180 1.237837 1.219807
v -0.430374 1.122641 1.219807
v -0.523569 1.029448 1.292522
v 0.000000 0.762237 1.333897
v 0.000000 0.812578 1.375270
v 0.000000 0.944374 1.353694
v 0.000000 1.048661 1.315036
v 0.000000 1.195705 1.350978
v 0.000000 1.289423 1.286750
v 0.000000 1.239080 1.266555
v 0.000000 1.107284 1.219807
v 0.000000 0.944376 1.219807
v 0.000000 0.812578 1.292522
v 0.559165 0.993851 1.333897
v 0.523569 1.029447 1.375270
v 0.430374 1.122641 1.353694
v 0.356632 1.196384 1.315036
v 0.252658 1.300358 1.350978
v 0.186388 1.366628 1.286750
v 0.221986 1.331030 1.266555
v 0.315180 1.237835 1.219807
v 0.430374 1.122641 1.219807
v 0.523569 1.029447 1.292522
vt 0.841931 0.841931
vt 0.824929 0.824929
vt 0.959519 0.500000
vt 0.782895 0.782895
vt 0.747375 0.747375
vt 0.849841 0.500000
vt 0.686867 0.686868
vt 0.640051 0.640051
vt 0.698062 0.500000
vt 0.665982 0.665982
vt 0.725037 0.725037
vt 0.818251 0.500000
vt 0.900073 0.500000
vt 0.500000 0.983563
vt 0.500000 0.959519
vt 0.500000 0.900073
vt 0.500000 0.849841
vt 0.500000 0.764271
vt 0.500000 0.698062
vt 0.500000 0.734734
vt 0.500000 0.818251
vt 0.158069 0.841931
vt 0.175071 0.824929
vt 0.217105 0.782895
vt 0.252625 0.747375
vt 0.313132 0.686868
vt 0.359949 0.640051
vt 0.334018 0.665982
vt 0.274963 0.725037
vt 0.016437 0.500000
vt 0.040481 0.500000
vt 0.099927 0.500000
vt 0.150159 0.500000
vt 0.235729 0.500000
vt 0.301938 0.500000
vt 0.265266 0.500000
vt 0.181749 0.500000
vt 0.158069 0.158069
vt 0.175071 0.175071
vt 0.217105 0.217105
vt 0.252625 0.252625
vt 0.313132 0.313132
vt 0.359949 0.359949
vt 0.334018 0.334018
vt 0.274963 0.274963
vt 0.500000 0.016437
vt 0.500000 0.040481
vt 0.500000 0.099926
vt 0.500000 0.150159
vt 0.500000 0.235729
vt 0.500000 0.301938
vt 0.500000 0.265266
vt 0.500000 0.181749
vt 0.841931 0.158069
vt 0.824929 0.175071
vt 0.782894 0.217105
vt 0.747375 0.252625
vt 0.686867 0.313132
vt 0.640051 0.359949
vt 0.665982 0.334018
vt 0.725037 0.274963
vt 0.983563 0.500000
vt 0.764271 0.500000
vt 0.734734 0.500000
vt 0.830179 0.119203
vt 0.912030 0.085300
vt 0.878126 0.167150
vt 0.496292 0.984575
vt 0.154803 0.850943
vt 0.194832 0.808566
vt 0.503912 0.926509
vt 0.231729 0.761617
vt 0.497055 0.813268
vt 0.496758 0.868749
vt 0.270449 0.717059
vt 0.301863 0.681038
vt 0.493252 0.766668
vt 0.341948 0.649847
vt 0.499955 0.499055
vt 0.496026 0.586993
vt 0.436513 0.556601
vt 0.407294 0.495372
vt 0.234617 0.486466
vt 0.284232 0.493270
vt 0.187692 0.488416
vt 0.129992 0.491055
vt 0.069845 0.488227
vt 0.011768 0.493522
vt 0.945933 0.167150
vt 0.993880 0.119203
vt 0.152147 0.150650
vt 0.199195 0.188670
vt 0.235743 0.236020
vt 0.280951 0.274481
vt 0.317219 0.306142
vt 0.439108 0.434285
vt 0.504269 0.412571
vt 0.349363 0.341619
vt 0.505575 0.234528
vt 0.501601 0.188186
vt 0.496385 0.130859
vt 0.496622 0.075159
vt 0.496663 0.015261
vt 0.993880 0.051396
vt 0.945933 0.003450
vt 0.839525 0.146569
vt 0.795538 0.185874
vt 0.755662 0.231254
vt 0.720972 0.277853
vt 0.692012 0.315090
vt 0.503436 0.287393
vt 0.566410 0.440704
vt 0.589387 0.504118
vt 0.653396 0.347615
vt 0.767058 0.500849
vt 0.818407 0.500763
vt 0.877868 0.495287
vt 0.935630 0.495811
vt 0.994007 0.496236
vt 0.878126 0.003450
vt 0.830179 0.051397
vt 0.851124 0.836894
vt 0.807950 0.794899
vt 0.762436 0.759090
vt 0.720060 0.717259
vt 0.688774 0.686419
vt 0.718940 0.501255
vt 0.560608 0.565399
vt 0.650099 0.654688
vt 0.495333 0.652503
vt 0.495086 0.713109
vt 0.387490 0.605294
vt 0.392873 0.386253
vt 0.503880 0.347652
vt 0.611865 0.392722
vt 0.656988 0.503102
vt 0.606691 0.611586
vt 0.495939 0.623622
vt 0.408945 0.584088
vt 0.372133 0.495028
vt 0.343864 0.494613
vt 0.413184 0.407565
vt 0.503787 0.376332
vt 0.591777 0.413806
vt 0.626343 0.502713
vt 0.587635 0.591077
vn 0.707100 0.707100 0.000000
vn 0.247600 0.247600 0.936700
vn 0.350100 0.000000 0.936700
vn -0.164800 -0.164800 0.972400
vn -0.091600 -0.091600 0.991500
vn -0.129600 0.000000 0.991500
vn -0.055300 -0.055300 0.996900
vn -0.699800 -0.699800 -0.143600
vn -0.989600 0.000000 -0.143600
vn -0.246700 -0.246700 -0.937100
vn -0.090400 -0.090400 -0.991800
vn -0.127900 0.000000 -0.991800
vn 0.216300 0.216300 -0.952100
vn 0.305800 0.000000 -0.952100
vn 0.407700 0.407700 -0.817000
vn 0.576600 0.000000 -0.817000
vn 0.000000 1.000000 0.000000
vn 0.000000 0.350100 0.936700
vn 0.000000 -0.233000 0.972400
vn 0.000000 -0.129600 0.991500
vn 0.000000 -0.078200 0.996900
vn 0.000000 -0.989600 -0.143600
vn 0.000000 -0.348900 -0.937100
vn 0.000000 -0.127900 -0.991800
vn 0.000000 0.305800 -0.952100
vn 0.000000 0.576600 -0.817000
vn -0.707100 0.707100 0.000000
vn -0.247600 0.247600 0.936700
vn 0.164800 -0.164800 0.972400
vn 0.091600 -0.091600 0.991500
vn 0.055300 -0.055300 0.996900
vn 0.699800 -0.699800 -0.143600
vn 0.246700 -0.246700 -0.937100
vn 0.090400 -0.090400 -0.991800
vn -0.216300 0.216300 -0.952100
vn -0.407700 0.407700 -0.817000
vn -1.000000 0.000000 0.000000
vn -0.350100 0.000000 0.936700
vn 0.233000 0.000000 0.972400
vn 0.129600 0.000000 0.991500
vn 0.078200 0.000000 0.996900
vn 0.989600 0.000000 -0.143600
vn 0.348900 0.000000 -0.937100
vn 0.127900 0.000000 -0.991800
vn -0.305800 0.000000 -0.952100
vn -0.576600 0.000000 -0.817000
vn -0.707100 -0.707100 0.000000
vn -0.247600 -0.247600 0.936700
vn 0.164800 0.164800 0.972400
vn 0.091600 0.091600 0.991500
vn 0.055300 0.055300 0.996900
vn 0.699800 0.699800 -0.143600
vn 0.246700 0.246700 -0.937100
vn 0.090400 0.090400 -0.991800
vn -0.216300 -0.216300 -0.952100
vn -0.407700 -0.407700 -0.817000
vn 0.000000 -1.000000 0.000000
vn 0.000000 -0.350100 0.936700
vn 0.000000 0.233000 0.972400
vn 0.000000 0.129600 0.991500
vn 0.000000 0.078200 0.996900
vn 0.000000 0.989600 -0.143600
vn 0.000000 0.348900 -0.937100
vn 0.000000 0.127900 -0.991800
vn 0.000000 -0.305800 -0.952100
vn 0.000000 -0.576600 -0.817000
vn 0.707100 -0.707100 0.000000
vn 0.247600 -0.247600 0.936700
vn -0.164800 0.164800 0.972400
vn -0.091600 0.091600 0.991500
vn -0.055300 0.055300 0.996900
vn -0.699800 0.699800 -0.143600
vn -0.246700 0.246700 -0.937100
vn -0.090400 0.090400 -0.991800
vn 0.216300 -0.216300 -0.952100
vn 0.407700 -0.407700 -0.817000
vn 1.000000 0.000000 0.000000
vn -0.233000 0.000000 0.972400
vn -0.078200 0.000000 0.996900
vn -0.348900 0.000000 -0.937100
vn 0.000000 0.000000 -1.000000
vn 0.397300 0.000000 -0.917700
vn 0.281000 0.281000 -0.917700
vn 0.498100 0.498100 -0.709800
vn 0.704400 0.000000 -0.709800
vn 0.651100 0.651100 -0.389900
vn 0.920800 0.000000 -0.389900
vn 0.651100 0.651100 0.389900
vn 0.920800 0.000000 0.389900
vn 0.519200 0.519200 0.678900
vn 0.000000 0.000000 1.000000
vn 0.527900 0.000000 0.849300
vn 0.373300 0.373300 0.849300
vn 0.000000 0.527900 0.849300
vn 0.000000 0.920800 0.389900
vn 0.000000 0.734200 0.678900
vn 0.000000 0.920800 -0.389900
vn 0.000000 0.704400 -0.709800
vn 0.000000 0.397300 -0.917700
vn -0.280900 0.281000 -0.917700
vn -0.498100 0.498100 -0.709800
vn -0.651100 0.651100 -0.389900
vn -0.651100 0.651100 0.389900
vn -0.373300 0.373300 0.849300
vn -0.527900 0.000000 0.849300
vn -0.519200 0.519200 0.678900
vn -0.920800 0.000000 0.389900
vn -0.920800 0.000000 -0.389900
vn -0.704400 0.000000 -0.709800
vn -0.397300 0.000000 -0.917700
vn -0.281000 -0.281000 -0.917700
vn -0.498100 -0.498100 -0.709800
vn -0.651100 -0.651100 -0.389900
vn -0.651100 -0.651100 0.389900
vn -0.734200 0.000000 0.678900
vn -0.373300 -0.373300 0.849300
vn 0.000000 -0.527900 0.849300
vn -0.519200 -0.519200 0.678900
vn 0.000000 -0.920800 0.389900
vn 0.000000 -0.920800 -0.389900
vn 0.000000 -0.704400 -0.709800
vn 0.000000 -0.397300 -0.917700
vn 0.281000 -0.281000 -0.917700
vn 0.498100 -0.498100 -0.709800
vn 0.651100 -0.651100 -0.389900
vn 0.651100 -0.651100 0.389900
vn 0.000000 -0.734200 0.678900
vn 0.373300 -0.373300 0.849300
vn 0.519200 -0.519200 0.678900
vn 0.565900 0.000000 0.824400
vn 0.734200 0.000000 0.678900
vn 0.400200 0.400200 0.824400
vn -0.400200 0.400200 0.824400
vn -0.565900 0.000000 0.824400
vn -0.400200 -0.400200 0.824400
vn 0.000000 -0.565900 0.824400
vn 0.400200 -0.400200 0.824400
vn 0.548300 0.000000 0.836300
vn 0.387700 0.387700 0.836300
vn 0.000000 0.548200 0.836300
vn 0.000000 0.565900 0.824400
vn -0.387700 0.387700 0.836300
vn -0.548300 0.000000 0.836300
vn -0.387700 -0.387700 0.836300
vn 0.000000 -0.548200 0.836300
vn 0.387700 -0.387700 0.836300
s 1
f 85/1/1 86/2/2 87/3/3
f 87/3/3 86/2/2 88/4/4
f 88/4/4 90/5/5 91/6/6
f 91/6/6 90/5/5 92/7/7
f 92/7/7 94/8/8 95/9/9
f 95/9/9 94/8/8 96/10/10
f 96/10/10 98/11/11 99/12/12
f 98/11/11 100/4/13 101/13/14
f 101/13/14 100/4/13 102/2/15
f 103/3/16 102/2/15 85/1/1
f 85/1/1 104/14/17 105/15/18
f 105/15/18 106/16/19 88/4/4
f 106/16/19 107/17/20 90/5/5
f 90/5/5 107/17/20 108/18/21
f 108/18/21 109/19/22 94/8/8
f 94/8/8 109/19/22 110/20/23
f 110/20/23 111/21/24 98/11/11
f 98/11/11 111/21/24 112/16/25
f 100/4/13 112/16/25 113/15/26
f 113/15/26 104/14/17 85/1/1
f 114/22/27 115/23/28 105/15/18
f 105/15/18 115/23/28 116/24/29
f 116/24/29 117/25/30 107/17/20
f 107/17/20 117/25/30 118/26/31
f 108/18/21 118/26/31 119/27/32
f 109/19/22 119/27/32 120/28/33
f 110/20/23 120/28/33 121/29/34
f 121/29/34 122/24/35 112/16/25
f 122/24/35 123/23/36 113/15/26
f 113/15/26 123/23/36 114/22/27
f 114/22/27 124/30/37 125/31/38
f 125/31/38 126/32/39 116/24/29
f 126/32/39 127/33/40 117/25/30
f 127/33/40 128/34/41 118/26/31
f 128/34/41 129/35/42 119/27/32
f 119/27/32 129/35/42 130/36/43
f 120/28/33 130/36/43 131/37/44
f 121/29/34 131/37/44 132/32/45
f 132/32/45 133/31/46 123/23/36
f 133/31/46 124/30/37 114/22/27
f 124/30/37 134/38/47 135/39/48
f 135/39/48 136/40/49 126/32/39
f 126/32/39 136/40/49 137/41/50
f 127/33/40 137/41/50 138/42/51
f 138/42/51 139/43/52 129/35/42
f 139/43/52 140/44/53 130/36/43
f 130/36/43 140/44/53 141/45/54
f 141/45/54 142/40/55 132/32/45
f 132/32/45 142/40/55 143/39/56
f 143/39/56 134/38/47 124/30/37
f 134/38/47 144/46/57 145/47/58
f 145/47/58 146/48/59 136/40/49
f 136/40/49 146/48/59 147/49/60
f 137/41/50 147/49/60 148/50/61
f 148/50/61 149/51/62 139/43/52
f 149/51/62 150/52/63 140/44/53
f 150/52/63 151/53/64 141/45/54
f 151/53/64 152/48/65 142/40/55
f 142/40/55 152/48/65 153/47/66
f 153/47/66 144/46/57 134/38/47
f 154/54/67 155/55/68 145/47/58
f 145/47/58 155/55/68 156/56/69
f 156/56/69 157/57/70 147/49/60
f 147/49/60 157/57/70 158/58/71
f 148/50/61 158/58/71 159/59/72
f 149/51/62 159/59/72 160/60/73
f 150/52/63 160/60/73 161/61/74
f 161/61/74 162/56/75 152/48/65
f 162/56/75 163/55/76 153/47/66
f 163/55/76 154/54/67 144/46/57
f 84/62/77 87/3/3 155/55/68
f 155/55/68 87/3/3 89/13/78
f 89/13/78 91/6/6 157/57/70
f 91/6/6 93/63/79 158/58/71
f 93/63/79 95/9/9 159/59/72
f 159/59/72 95/9/9 97/64/80
f 160/60/73 97/64/80 99/12/12
f 99/12/12 101/13/14 162/56/75
f 101/13/14 103/3/16 163/55/76
f 154/54/67 163/55/76 103/3/16
f 84/62/77 85/1/1 87/3/3
f 89/13/78 87/3/3 88/4/4
f 89/13/78 88/4/4 91/6/6
f 93/63/79 91/6/6 92/7/7
f 93/63/79 92/7/7 95/9/9
f 97/64/80 95/9/9 96/10/10
f 97/64/80 96/10/10 99/12/12
f 99/12/12 98/11/11 101/13/14
f 103/3/16 101/13/14 102/2/15
f 84/62/77 103/3/16 85/1/1
f 86/2/2 85/1/1 105/15/18
f 86/2/2 105/15/18 88/4/4
f 88/4/4 106/16/19 90/5/5
f 92/7/7 90/5/5 108/18/21
f 92/7/7 108/18/21 94/8/8
f 96/10/10 94/8/8 110/20/23
f 96/10/10 110/20/23 98/11/11
f 100/4/13 98/11/11 112/16/25
f 102/2/15 100/4/13 113/15/26
f 102/2/15 113/15/26 85/1/1
f 104/14/17 114/22/27 105/15/18
f 106/16/19 105/15/18 116/24/29
f 106/16/19 116/24/29 107/17/20
f 108/18/21 107/17/20 118/26/31
f 109/19/22 108/18/21 119/27/32
f 110/20/23 109/19/22 120/28/33
f 111/21/24 110/20/23 121/29/34
f 111/21/24 121/29/34 112/16/25
f 112/16/25 122/24/35 113/15/26
f 104/14/17 113/15/26 114/22/27
f 115/23/28 114/22/27 125/31/38
f 115/23/28 125/31/38 116/24/29
f 116/24/29 126/32/39 117/25/30
f 117/25/30 127/33/40 118/26/31
f 118/26/31 128/34/41 119/27/32
f 120/28/33 119/27/32 130/36/43
f 121/29/34 120/28/33 131/37/44
f 122/24/35 121/29/34 132/32/45
f 122/24/35 132/32/45 123/23/36
f 123/23/36 133/31/46 114/22/27
f 125/31/38 124/30/37 135/39/48
f 125/31/38 135/39/48 126/32/39
f 127/33/40 126/32/39 137/41/50
f 128/34/41 127/33/40 138/42/51
f 128/34/41 138/42/51 129/35/42
f 129/35/42 139/43/52 130/36/43
f 131/37/44 130/36/43 141/45/54
f 131/37/44 141/45/54 132/32/45
f 133/31/46 132/32/45 143/39/56
f 133/31/46 143/39/56 124/30/37
f 135/39/48 134/38/47 145/47/58
f 135/39/48 145/47/58 136/40/49
f 137/41/50 136/40/49 147/49/60
f 138/42/51 137/41/50 148/50/61
f 138/42/51 148/50/61 139/43/52
f 139/43/52 149/51/62 140/44/53
f 140/44/53 150/52/63 141/45/54
f 141/45/54 151/53/64 142/40/55
f 143/39/56 142/40/55 153/47/66
f 143/39/56 153/47/66 134/38/47
f 144/46/57 154/54/67 145/47/58
f 146/48/59 145/47/58 156/56/69
f 146/48/59 156/56/69 147/49/60
f 148/50/61 147/49/60 158/58/71
f 149/51/62 148/50/61 159/59/72
f 150/52/63 149/51/62 160/60/73
f 151/53/64 150/52/63 161/61/74
f 151/53/64 161/61/74 152/48/65
f 152/48/65 162/56/75 153/47/66
f 153/47/66 163/55/76 144/46/57
f 154/54/67 84/62/77 155/55/68
f 156/56/69 155/55/68 89/13/78
f 156/56/69 89/13/78 157/57/70
f 157/57/70 91/6/6 158/58/71
f 158/58/71 93/63/79 159/59/72
f 160/60/73 159/59/72 97/64/80
f 161/61/74 160/60/73 99/12/12
f 161/61/74 99/12/12 162/56/75
f 162/56/75 101/13/14 163/55/76
f 84/62/77 154/54/67 103/3/16
f 75/65/81 76/65/81 77/65/81
f 75/65/81 77/65/81 78/65/81
f 75/65/81 78/65/81 79/65/81
f 75/65/81 79/65/81 80/65/81
f 75/65/81 80/65/81 81/65/81
f 75/65/81 81/65/81 82/65/81
f 75/65/81 82/65/81 83/65/81
f 83/65/81 76/65/81 75/65/81
f 1/65/82 2/66/81 3/67/83
f 1/68/82 3/69/83 5/70/84
f 4/71/85 5/70/84 7/72/86
f 8/73/77 6/74/87 7/72/86
f 8/73/77 9/75/1 11/76/88
f 10/77/89 11/76/88 13/78/90
f 14/79/91 15/80/92 16/81/93
f 14/79/91 16/81/93 17/82/94
f 11/76/88 18/83/95 19/84/96
f 11/76/88 9/75/1 20/85/17
f 9/75/1 7/72/86 21/86/97
f 5/70/84 22/87/98 21/86/97
f 3/69/83 23/88/99 22/87/98
f 3/67/83 2/66/81 23/89/99
f 23/89/99 2/66/81 24/90/100
f 22/87/98 23/88/99 24/91/100
f 22/87/98 25/92/101 26/93/102
f 20/85/17 21/86/97 26/93/102
f 20/85/17 27/94/27 28/95/103
f 19/84/96 18/83/95 28/95/103
f 14/79/91 17/82/94 30/96/104
f 14/79/91 30/96/104 31/97/105
f 29/98/106 28/95/103 32/99/107
f 27/94/27 34/100/37 32/99/107
f 27/94/27 26/93/102 35/101/108
f 25/92/101 36/102/109 35/101/108
f 25/92/101 24/91/100 37/103/110
f 24/90/100 2/66/81 37/104/110
f 37/104/110 2/66/81 38/105/111
f 37/103/110 38/106/111 39/107/112
f 36/102/109 39/107/112 40/108/113
f 34/100/37 35/101/108 40/108/113
f 34/100/37 41/109/47 42/110/114
f 33/111/115 32/99/107 42/110/114
f 14/79/91 31/97/105 44/112/116
f 14/79/91 44/112/116 45/113/117
f 43/114/118 42/110/114 46/115/119
f 41/109/47 48/116/57 46/115/119
f 41/109/47 40/108/113 49/117/120
f 39/107/112 50/118/121 49/117/120
f 39/107/112 38/106/111 51/119/122
f 38/105/111 2/66/81 51/120/122
f 51/120/122 2/66/81 52/121/123
f 51/119/122 52/122/123 53/123/124
f 50/118/121 53/123/124 54/124/125
f 48/116/57 49/117/120 54/124/125
f 48/116/57 55/125/67 56/126/126
f 47/127/127 46/115/119 56/126/126
f 14/79/91 45/113/117 58/128/128
f 58/128/128 15/80/92 14/79/91
f 57/129/129 56/126/126 10/77/89
f 55/125/67 8/73/77 10/77/89
f 55/125/67 54/124/125 6/74/87
f 53/123/124 4/71/85 6/74/87
f 53/123/124 52/122/123 1/68/82
f 52/121/123 2/66/81 1/65/82
f 59/130/130 12/131/131 13/78/90
f 60/132/132 13/78/90 19/84/96
f 19/84/96 29/98/106 62/133/133
f 29/98/106 33/111/115 63/134/134
f 33/111/115 43/114/118 64/135/135
f 43/114/118 47/127/127 65/136/136
f 47/127/127 57/129/129 66/137/137
f 59/130/130 66/137/137 57/129/129
f 15/80/92 67/138/138 68/139/139
f 67/138/138 59/130/130 60/132/132
f 16/81/93 68/139/139 69/140/140
f 68/139/139 60/132/132 61/141/141
f 69/140/140 70/142/142 30/96/104
f 61/141/141 62/133/133 70/142/142
f 70/142/142 71/143/143 31/97/105
f 62/133/133 63/134/134 71/143/143
f 71/143/143 72/144/144 44/112/116
f 63/134/134 64/135/135 72/144/144
f 44/112/116 72/144/144 73/145/145
f 72/144/144 64/135/135 65/136/136
f 73/145/145 74/146/146 58/128/128
f 65/136/136 66/137/137 74/146/146
f 59/130/130 67/138/138 74/146/146
f 15/80/92 58/128/128 74/146/146
f 4/71/85 1/68/82 5/70/84
f 6/74/87 4/71/85 7/72/86
f 9/75/1 8/73/77 7/72/86
f 10/77/89 8/73/77 11/76/88
f 12/131/131 10/77/89 13/78/90
f 13/78/90 11/76/88 19/84/96
f 18/83/95 11/76/88 20/85/17
f 20/85/17 9/75/1 21/86/97
f 7/72/86 5/70/84 21/86/97
f 5/70/84 3/69/83 22/87/98
f 25/92/101 22/87/98 24/91/100
f 21/86/97 22/87/98 26/93/102
f 27/94/27 20/85/17 26/93/102
f 18/83/95 20/85/17 28/95/103
f 29/98/106 19/84/96 28/95/103
f 33/111/115 29/98/106 32/99/107
f 28/95/103 27/94/27 32/99/107
f 34/100/37 27/94/27 35/101/108
f 26/93/102 25/92/101 35/101/108
f 36/102/109 25/92/101 37/103/110
f 36/102/109 37/103/110 39/107/112
f 35/101/108 36/102/109 40/108/113
f 41/109/47 34/100/37 40/108/113
f 32/99/107 34/100/37 42/110/114
f 43/114/118 33/111/115 42/110/114
f 47/127/127 43/114/118 46/115/119
f 42/110/114 41/109/47 46/115/119
f 48/116/57 41/109/47 49/117/120
f 40/108/113 39/107/112 49/117/120
f 50/118/121 39/107/112 51/119/122
f 50/118/121 51/119/122 53/123/124
f 49/117/120 50/118/121 54/124/125
f 55/125/67 48/116/57 54/124/125
f 46/115/119 48/116/57 56/126/126
f 57/129/129 47/127/127 56/126/126
f 12/131/131 57/129/129 10/77/89
f 56/126/126 55/125/67 10/77/89
f 8/73/77 55/125/67 6/74/87
f 54/124/125 53/123/124 6/74/87
f 4/71/85 53/123/124 1/68/82
f 60/132/132 59/130/130 13/78/90
f 61/141/141 60/132/132 19/84/96
f 61/141/141 19/84/96 62/133/133
f 62/133/133 29/98/106 63/134/134
f 63/134/134 33/111/115 64/135/135
f 64/135/135 43/114/118 65/136/136
f 65/136/136 47/127/127 66/137/137
f 12/131/131 59/130/130 57/129/129
f 16/81/93 15/80/92 68/139/139
f 68/139/139 67/138/138 60/132/132
f 17/82/94 16/81/93 69/140/140
f 69/140/140 68/139/139 61/141/141
f 17/82/94 69/140/140 30/96/104
f 69/140/140 61/141/141 70/142/142
f 30/96/104 70/142/142 31/97/105
f 70/142/142 62/133/133 71/143/143
f 31/97/105 71/143/143 44/112/116
f 71/143/143 63/134/134 72/144/144
f 45/113/117 44/112/116 73/145/145
f 73/145/145 72/144/144 65/136/136
f 45/113/117 73/145/145 58/128/128
f 73/145/145 65/136/136 74/146/146
f 66/137/137 59/130/130 74/146/146
f 67/138/138 15/80/92 74/146/146
